<svg id="visual" viewBox="0 0 1920 1080" width="1920" height="1080" xmlns="http://www.w3.org/2000/svg" xmlns:xlink="http://www.w3.org/1999/xlink" version="1.1"><path d="M0 87L64 85.3C128 83.7 256 80.3 384 80.3C512 80.3 640 83.7 768 85.3C896 87 1024 87 1152 85.3C1280 83.7 1408 80.3 1536 78.7C1664 77 1792 77 1856 77L1920 77L1920 0L1856 0C1792 0 1664 0 1536 0C1408 0 1280 0 1152 0C1024 0 896 0 768 0C640 0 512 0 384 0C256 0 128 0 64 0L0 0Z" fill="#6198ff"></path><path d="M0 152L64 150.2C128 148.3 256 144.7 384 144.7C512 144.7 640 148.3 768 150.2C896 152 1024 152 1152 150.2C1280 148.3 1408 144.7 1536 142.8C1664 141 1792 141 1856 141L1920 141L1920 75L1856 75C1792 75 1664 75 1536 76.7C1408 78.3 1280 81.7 1152 83.3C1024 85 896 85 768 83.3C640 81.7 512 78.3 384 78.3C256 78.3 128 81.7 64 83.3L0 85Z" fill="#4f8cff"></path><path d="M0 401L64 401C128 401 256 401 384 399.2C512 397.3 640 393.7 768 395.3C896 397 1024 404 1152 407.5C1280 411 1408 411 1536 407.5C1664 404 1792 397 1856 393.5L1920 390L1920 139L1856 139C1792 139 1664 139 1536 140.8C1408 142.7 1280 146.3 1152 148.2C1024 150 896 150 768 148.2C640 146.3 512 142.7 384 142.7C256 142.7 128 146.3 64 148.2L0 150Z" fill="#3c80ff"></path><path d="M0 498L64 496.2C128 494.3 256 490.7 384 488.8C512 487 640 487 768 488.8C896 490.7 1024 494.3 1152 496.2C1280 498 1408 498 1536 494.3C1664 490.7 1792 483.3 1856 479.7L1920 476L1920 388L1856 391.5C1792 395 1664 402 1536 405.5C1408 409 1280 409 1152 405.5C1024 402 896 395 768 393.3C640 391.7 512 395.3 384 397.2C256 399 128 399 64 399L0 399Z" fill="#2573ff"></path><path d="M0 649L64 645.3C128 641.7 256 634.3 384 629C512 623.7 640 620.3 768 620.3C896 620.3 1024 623.7 1152 629C1280 634.3 1408 641.7 1536 640C1664 638.3 1792 627.7 1856 622.3L1920 617L1920 474L1856 477.7C1792 481.3 1664 488.7 1536 492.3C1408 496 1280 496 1152 494.2C1024 492.3 896 488.7 768 486.8C640 485 512 485 384 486.8C256 488.7 128 492.3 64 494.2L0 496Z" fill="#0066ff"></path><path d="M0 746L64 744.2C128 742.3 256 738.7 384 733.3C512 728 640 721 768 722.8C896 724.7 1024 735.3 1152 742.5C1280 749.7 1408 753.3 1536 751.5C1664 749.7 1792 742.3 1856 738.7L1920 735L1920 615L1856 620.3C1792 625.7 1664 636.3 1536 638C1408 639.7 1280 632.3 1152 627C1024 621.7 896 618.3 768 618.3C640 618.3 512 621.7 384 627C256 632.3 128 639.7 64 643.3L0 647Z" fill="#005fee"></path><path d="M0 962L64 960.2C128 958.3 256 954.7 384 954.7C512 954.7 640 958.3 768 960.2C896 962 1024 962 1152 962C1280 962 1408 962 1536 960.2C1664 958.3 1792 954.7 1856 952.8L1920 951L1920 733L1856 736.7C1792 740.3 1664 747.7 1536 749.5C1408 751.3 1280 747.7 1152 740.5C1024 733.3 896 722.7 768 720.8C640 719 512 726 384 731.3C256 736.7 128 740.3 64 742.2L0 744Z" fill="#0059dd"></path><path d="M0 1027L64 1027C128 1027 256 1027 384 1027C512 1027 640 1027 768 1027C896 1027 1024 1027 1152 1027C1280 1027 1408 1027 1536 1027C1664 1027 1792 1027 1856 1027L1920 1027L1920 949L1856 950.8C1792 952.7 1664 956.3 1536 958.2C1408 960 1280 960 1152 960C1024 960 896 960 768 958.2C640 956.3 512 952.7 384 952.7C256 952.7 128 956.3 64 958.2L0 960Z" fill="#0052cc"></path><path d="M0 1081L64 1081C128 1081 256 1081 384 1081C512 1081 640 1081 768 1081C896 1081 1024 1081 1152 1081C1280 1081 1408 1081 1536 1081C1664 1081 1792 1081 1856 1081L1920 1081L1920 1025L1856 1025C1792 1025 1664 1025 1536 1025C1408 1025 1280 1025 1152 1025C1024 1025 896 1025 768 1025C640 1025 512 1025 384 1025C256 1025 128 1025 64 1025L0 1025Z" fill="#004cbb"></path></svg>